<svg width="18" height="18" viewBox="0 0 18 18" fill="none" xmlns="http://www.w3.org/2000/svg">
<path fill-rule="evenodd" clip-rule="evenodd" d="M11.71 11H12.5L16.74 15.26C17.15 15.67 17.15 16.34 16.74 16.75C16.33 17.16 15.66 17.16 15.25 16.75L11 12.5V11.71L10.73 11.43C9.33002 12.63 7.42002 13.25 5.39002 12.91C2.61002 12.44 0.390015 10.12 0.0500152 7.32002C-0.469985 3.09002 3.09002 -0.469985 7.32002 0.0500152C10.12 0.390015 12.44 2.61002 12.91 5.39002C13.25 7.42002 12.63 9.33002 11.43 10.73L11.71 11ZM2.00002 6.50002C2.00002 8.99002 4.01002 11 6.50002 11C8.99002 11 11 8.99002 11 6.50002C11 4.01002 8.99002 2.00002 6.50002 2.00002C4.01002 2.00002 2.00002 4.01002 2.00002 6.50002Z" fill="#999999"/>
</svg>
